<svg width="87" height="92" viewBox="0 0 87 92" fill="none" xmlns="http://www.w3.org/2000/svg">
<path opacity="0.5" fill-rule="evenodd" clip-rule="evenodd" d="M8.15625 46C8.15625 25.3583 23.9802 8.625 43.5 8.625C63.0199 8.625 78.8437 25.3583 78.8437 46V56.7053C79.1272 56.5992 79.4321 56.5417 79.75 56.5417C81.2515 56.5417 82.4687 57.8289 82.4687 59.4167V67.0833C82.4687 68.6711 81.2515 69.9583 79.75 69.9583C78.2485 69.9583 77.0312 68.6711 77.0312 67.0833V65.1667H73.4062V46C73.4062 28.534 60.0166 14.375 43.5 14.375C26.9832 14.375 13.5937 28.534 13.5937 46V65.1667H9.96875V67.0833C9.96875 68.6711 8.75151 69.9583 7.25 69.9583C5.74849 69.9583 4.53125 68.6711 4.53125 67.0833V59.4167C4.53125 57.8289 5.74849 56.5417 7.25 56.5417C7.56777 56.5417 7.87281 56.5992 8.15625 56.7053V46Z" fill="#1C274C"/>
<path d="M29 53.8568C29 50.6011 29 48.9731 28.2399 47.8411C27.8574 47.2715 27.3496 46.8008 26.7571 46.4665C25.5796 45.8022 23.9893 45.9555 20.8087 46.2626C15.4492 46.7801 12.7694 47.0388 10.8491 48.4552C9.87715 49.1721 9.06123 50.0859 8.45259 51.1397C7.25 53.2216 7.25 55.9647 7.25 61.451V68.1195C7.25 73.5509 7.25 76.2668 8.47659 78.3641C8.9357 79.1491 9.51117 79.8571 10.1826 80.4632C11.9764 82.0816 14.5947 82.5872 19.8314 83.5985C23.5165 84.3099 25.3591 84.6657 26.719 83.9163C27.2208 83.6399 27.6644 83.2654 28.0244 82.8146C29 81.5925 29 79.6812 29 75.859V53.8568Z" fill="#1C274C"/>
<path d="M58 53.8568C58 50.6011 58 48.9731 58.7602 47.8411C59.1426 47.2715 59.6505 46.8008 60.2428 46.4665C61.4202 45.8022 63.0108 45.9555 66.1914 46.2626C71.551 46.7801 74.2306 47.0388 76.1511 48.4552C77.123 49.1721 77.9386 50.0859 78.5472 51.1397C79.75 53.2216 79.75 55.9647 79.75 61.451V68.1195C79.75 73.5509 79.75 76.2668 78.5233 78.3641C78.0644 79.1491 77.4887 79.8571 76.8174 80.4632C75.0237 82.0816 72.4054 82.5872 67.1687 83.5985C63.4835 84.3099 61.6409 84.6657 60.2808 83.9163C59.7791 83.6399 59.3358 83.2654 58.9755 82.8146C58 81.5925 58 79.6812 58 75.859V53.8568Z" fill="#1C274C"/>
<path d="M59 84V65V46" stroke="white" stroke-width="4" stroke-linecap="round"/>
<path d="M28 84V46" stroke="white" stroke-width="4" stroke-linecap="round"/>
</svg>
